<svg width="70" height="70" viewBox="0 0 70 70" fill="none" xmlns="http://www.w3.org/2000/svg">
<path d="M19.1776 35.9627L6.78502 31.0057C6.44138 30.8682 6.44138 30.3818 6.78502 30.2443L34.2572 19.2554C34.734 19.0647 35.266 19.0647 35.7428 19.2554L63.215 30.2443C63.5586 30.3818 63.5586 30.8682 63.215 31.0057L50.8224 35.9627" stroke="#222222" stroke-linecap="round" stroke-linejoin="round"/>
<path d="M41.7917 39.375C41.7917 39.6511 42.0155 39.875 42.2917 39.875C42.5678 39.875 42.7917 39.6511 42.7917 39.375H41.7917ZM41.7917 21.875V39.375H42.7917V21.875H41.7917Z" fill="#222222"/>
<path d="M18.9583 36.4583V48.125L35 53.9583L51.0417 48.125V36.4583C51.0417 36.4583 49.5833 30.625 35 30.625C20.4167 30.625 18.9583 36.4583 18.9583 36.4583Z" stroke="#222222" stroke-linecap="round" stroke-linejoin="round"/>
</svg>
