<svg width="70" height="70" viewBox="0 0 70 70" fill="none" xmlns="http://www.w3.org/2000/svg">
<path d="M11.6667 44.25C12.3553 44.25 12.8682 43.7039 13.2324 43.0876C13.6164 42.4379 13.9449 41.531 14.2141 40.4542C14.7545 38.2929 15.0833 35.3336 15.0833 32.0834C15.0833 28.8331 14.7545 25.8738 14.2141 23.7125C13.9449 22.6357 13.6164 21.7288 13.2324 21.0791C12.8682 20.4628 12.3553 19.9167 11.6667 19.9167C10.978 19.9167 10.4652 20.4628 10.1009 21.0791C9.71691 21.7288 9.3884 22.6357 9.1192 23.7125C8.57887 25.8738 8.25 28.8331 8.25 32.0834C8.25 35.3336 8.57887 38.2929 9.1192 40.4542C9.3884 41.531 9.71691 42.4379 10.1009 43.0876C10.4652 43.7039 10.978 44.25 11.6667 44.25Z" stroke="#222222"/>
<path d="M58.3333 44.25C59.0002 44.25 59.5088 43.7313 59.8776 43.1203C60.2647 42.4789 60.6017 41.5706 60.8808 40.4542C61.4406 38.215 61.75 35.2044 61.75 32.0834C61.75 28.9623 61.4406 25.9517 60.8808 23.7125C60.6017 22.5961 60.2647 21.6878 59.8776 21.0464C59.5088 20.4354 59.0002 19.9167 58.3333 19.9167" stroke="#222222" stroke-linecap="round"/>
<path d="M58.3333 18.9583C58.3333 18.9583 48.125 21.875 35 21.875C21.875 21.875 11.6667 18.9583 11.6667 18.9583" stroke="#222222" stroke-linecap="round"/>
<path d="M11.6667 45.2083C11.6667 45.2083 18.9712 43.1213 29.1667 42.4781M58.3333 45.2083C58.3333 45.2083 51.0288 43.1213 40.8333 42.4781" stroke="#222222" stroke-linecap="round"/>
<path d="M30.625 21.875V32.0833M39.375 21.875V32.0833" stroke="#222222" stroke-linecap="round"/>
<path d="M35 44.25C38.4978 44.25 41.3333 41.4145 41.3333 37.9166C41.3333 34.4188 38.4978 31.5833 35 31.5833C31.5022 31.5833 28.6667 34.4188 28.6667 37.9166C28.6667 41.4145 31.5022 44.25 35 44.25Z" stroke="#222222"/>
<path d="M29.1667 42.2917L21.875 48.125L26.25 49.5834L29.1667 53.9584L35 45.2084L40.8333 53.9584L43.75 49.5834L48.125 48.125L40.8333 42.2917" stroke="#222222" stroke-linecap="round" stroke-linejoin="round"/>
</svg>
