<svg width="61" height="61" viewBox="0 0 61 61" fill="none" xmlns="http://www.w3.org/2000/svg">
<g id="fi-rr-search-heart" clip-path="url(#clip0_54_64)">
<path id="Vector" d="M59.7991 56.2506L44.8982 41.3496C53.6393 30.659 52.0589 14.9064 41.3683 6.16537C30.6776 -2.57564 14.9251 -0.995484 6.18399 9.69518C-2.55714 20.3858 -0.976749 36.1384 9.71391 44.8796C18.9223 52.4087 32.16 52.4087 41.3684 44.8796L56.2693 59.7805C57.2611 60.7383 58.8415 60.7109 59.7993 59.7191C60.7335 58.7517 60.7335 57.218 59.7991 56.2506ZM5.60977 25.5624C5.60977 14.5326 14.5512 5.59116 25.581 5.59116C36.6108 5.59116 45.5522 14.5326 45.5522 25.5624C45.5522 36.5922 36.6108 45.5336 25.581 45.5336C14.5563 45.5212 5.6222 36.587 5.60977 25.5624ZM30.5739 15.5767C28.709 15.5851 26.9196 16.3151 25.5811 17.6138C24.2426 16.3152 22.4533 15.5851 20.5883 15.5767C16.3188 15.7246 12.9715 19.2951 13.0991 23.5651C13.0991 28.5579 18.1943 33.7081 22.4706 37.1455C24.2909 38.5953 26.8713 38.5953 28.6916 37.1455C32.9679 33.708 38.0631 28.5579 38.0631 23.5651C38.1906 19.2951 34.8434 15.7246 30.5739 15.5767ZM25.596 33.2513C20.9677 29.5316 18.0918 25.812 18.0918 23.5653C17.9672 22.0528 19.078 20.7197 20.5882 20.5696C22.0983 20.7197 23.2092 22.0528 23.0847 23.5653C23.0847 24.944 24.2023 26.0617 25.5811 26.0617C26.9598 26.0617 28.0775 24.9441 28.0775 23.5653C27.953 22.0528 29.0638 20.7197 30.574 20.5696C32.0841 20.7197 33.195 22.0528 33.0704 23.5653C33.0702 25.812 30.1944 29.5316 25.596 33.2513Z" fill="#00C2CB"/>
</g>
<defs>
<clipPath id="clip0_54_64">
<rect width="60" height="60" fill="white" transform="translate(0.5 0.5)"/>
</clipPath>
</defs>
</svg>
