<svg width="30" height="30" viewBox="0 0 30 30" fill="none" xmlns="http://www.w3.org/2000/svg">
<g id="Symbol">
<path id="Vector" d="M16.9218 15.0003C16.9218 23.2844 13.1337 30 8.46104 30C3.78841 30 0 23.2844 0 15.0003C0 6.7161 3.78812 0 8.46104 0C13.134 0 16.9218 6.7161 16.9218 15.0003Z" fill="#B2B6C4"/>
<path id="Vector_2" d="M26.2035 15.0003C26.2035 22.798 24.3094 29.1219 21.973 29.1219C19.6365 29.1219 17.7425 22.798 17.7425 15.0003C17.7425 7.20256 19.6362 0.878723 21.9727 0.878723C24.3092 0.878723 26.2032 7.20053 26.2032 15.0003" fill="#B2B6C4"/>
<path id="Vector_3" d="M30 15.0003C30 21.9852 29.3339 27.651 28.5121 27.651C27.6902 27.651 27.0245 21.9867 27.0245 15.0003C27.0245 8.01393 27.6905 2.34961 28.5121 2.34961C29.3336 2.34961 30 8.01343 30 15.0003Z" fill="#B2B6C4"/>
</g>
</svg>
